<svg width="580" height="400" xmlns="http://www.w3.org/2000/svg">
 <!-- Created with Method Draw - http://github.com/duopixel/Method-Draw/ -->

 <g>
  <title>background</title>
  <rect fill="transparent" id="canvas_background" height="402" width="582" y="-1" x="-1"/>
  <g display="none" overflow="visible" y="0" x="0" height="100%" width="100%" id="canvasGrid">
   <rect fill="url(#gridpattern)" stroke-width="0" y="0" x="0" height="100%" width="100%"/>
  </g>
 </g>
 <g>
  <title>Layer 1</title>
  <path stroke="#000" transform="rotate(94.43601989746094 292.4090576171875,204.2618560791016) " id="svg_3" d="m114.037514,173.794417c12.890928,-97.542861 92.946159,-163.396986 100.118731,-168.503364c7.172572,-5.106378 99.193235,-56.091013 169.596959,23.828502c124.478971,187.298366 96.64813,259.185094 64.057482,309.349951c-32.590649,50.164857 -105.176002,32.705619 -167.514596,44.181221c-62.338595,11.475601 -102.730006,51.312657 -133.734041,38.934994c-31.004035,-12.377663 -45.415462,-150.248429 -32.524535,-247.791303z" stroke-width="0" fill="#2395ff"/>
  <path transform="rotate(12.95554256439209 565.6307983398439,24.317901611327695) " opacity="0.41" id="svg_12" d="m406.91121,2.453445c11.47068,-70.00006 82.70589,-117.25921 89.08823,-120.92372c6.38234,-3.66451 88.2647,-40.25281 150.91175,17.10014c110.7646,134.41165 86,186 57,222c-29,36 -93.58832,23.47066 -149.05881,31.70594c-55.47049,8.23528 -91.41181,36.8237 -119,27.94107c-27.58819,-8.88263 -40.41185,-107.82336 -28.94117,-177.82343z" stroke-width="0" stroke="#000" fill="#8ecaff"/>
  <path stroke="#000" transform="rotate(12.95554256439209 586.2189941406256,420.1995849609374) " opacity="0.48" id="svg_13" d="m436.652902,399.220893c10.809156,-67.164262 77.936173,-112.508879 83.950438,-116.024934c6.014265,-3.516056 83.174401,-38.622114 142.208544,16.40739c104.376713,128.96645 81.040308,178.464885 53.712763,213.006476c-27.327546,34.541591 -88.191004,22.519831 -140.462464,30.421489c-52.271461,7.901658 -86.140015,35.331921 -112.137171,26.809139c-25.997156,-8.522782 -38.081265,-103.455288 -27.272109,-170.619559z" stroke-width="0" fill="#8ecaff"/>
 </g>
</svg>
