<?xml version="1.0" encoding="UTF-8" standalone="no"?>
<!DOCTYPE svg PUBLIC "-//W3C//DTD SVG 1.1//EN" "http://www.w3.org/Graphics/SVG/1.1/DTD/svg11.dtd">
<svg version="1.1" xmlns="http://www.w3.org/2000/svg" xmlns:xlink="http://www.w3.org/1999/xlink" preserveAspectRatio="xMidYMid meet" viewBox="0 0 640 640" width="640" height="640"><defs><path d="M144.03 248.47L495.97 248.47L495.97 384.13L144.03 384.13L144.03 248.47Z" id="e2ax9EPw0U"></path><path d="M307.07 332.96C309.4 332.96 321.1 332.96 342.15 332.96L342.15 321.85C318.69 321.85 305.65 321.85 303.05 321.85C302.74 320.02 302.56 318.19 302.56 316.3C302.56 314.41 302.74 312.57 303.05 310.74C305.65 310.74 318.69 310.74 342.15 310.74L342.15 299.63C321.1 299.63 309.4 299.63 307.07 299.63C313.64 288.07 326.92 280.19 342.15 280.19C351.95 280.19 360.97 283.46 367.91 288.91C368.99 287.92 377.61 280.06 378.69 279.07C369.01 271.13 356.16 266.3 342.15 266.3C318.27 266.3 298.05 280.24 290.5 299.63C289.07 299.63 281.92 299.63 269.06 299.63L269.06 310.74C280.24 310.74 286.46 310.74 287.7 310.74C287.45 312.57 287.33 314.41 287.33 316.3C287.33 318.19 287.45 320.02 287.7 321.85C286.46 321.85 280.24 321.85 269.06 321.85L269.06 332.96C281.92 332.96 289.07 332.96 290.5 332.96C298.05 352.35 318.27 366.3 342.15 366.3C356.22 366.3 369.01 361.46 378.69 353.52C377.61 352.54 368.93 344.67 367.85 343.69C360.97 349.13 352.01 352.41 342.15 352.41C326.86 352.41 313.64 344.52 307.07 332.96Z" id="f3ASWr6El7"></path><path d="M184.29 243.71L287.39 245.2L195.57 216.7L184.29 243.71Z" id="aXpg0abi4"></path><path d="M473.43 389.13L346.33 387.64L466.01 423.3L473.43 389.13Z" id="c2KCClie3F"></path></defs><g><g><g><use xlink:href="#e2ax9EPw0U" opacity="1" fill="#000000" fill-opacity="1"></use></g><g><use xlink:href="#f3ASWr6El7" opacity="1" fill="#ffffff" fill-opacity="1"></use><g><use xlink:href="#f3ASWr6El7" opacity="1" fill-opacity="0" stroke="#000000" stroke-width="1" stroke-opacity="0"></use></g></g><g><use xlink:href="#aXpg0abi4" opacity="1" fill="#000000" fill-opacity="1"></use><g><use xlink:href="#aXpg0abi4" opacity="1" fill-opacity="0" stroke="#000000" stroke-width="1" stroke-opacity="1"></use></g></g><g><use xlink:href="#c2KCClie3F" opacity="1" fill="#000000" fill-opacity="1"></use><g><use xlink:href="#c2KCClie3F" opacity="1" fill-opacity="0" stroke="#000000" stroke-width="1" stroke-opacity="1"></use></g></g></g></g></svg>